<?xml version="1.0" standalone="no"?>
<!DOCTYPE svg PUBLIC "-//W3C//DTD SVG 20010904//EN"
 "http://www.w3.org/TR/2001/REC-SVG-20010904/DTD/svg10.dtd">
<svg version="1.0" xmlns="http://www.w3.org/2000/svg"
 width="250.000000pt" height="250.000000pt" viewBox="0 0 250.000000 250.000000"
 preserveAspectRatio="xMidYMid meet">
<metadata>
Created by potrace 1.11, written by Peter Selinger 2001-2013
</metadata>
<g transform="translate(0.000000,250.000000) scale(0.100000,-0.100000)"
fill="#000000" stroke="none">
<path d="M471 2353 c-35 -37 -141 -148 -235 -247 -217 -226 -228 -239 -217
-245 5 -3 83 -6 173 -5 l165 1 0 -871 c1 -479 2 -877 2 -883 1 -10 43 -13 176
-13 96 0 175 3 176 8 1 4 2 401 2 882 l2 875 178 0 c97 0 177 0 177 1 0 3
-291 311 -465 492 l-71 74 -63 -69z"/>
<path d="M1825 2274 c-77 -81 -162 -170 -188 -198 -27 -28 -83 -86 -124 -128
-41 -42 -73 -81 -70 -85 3 -4 80 -8 171 -7 91 0 167 -2 167 -5 1 -3 2 -191 3
-418 1 -383 0 -411 -15 -402 -10 5 -19 13 -21 18 -3 8 -149 163 -420 445 l-78
81 -82 -86 c-46 -47 -153 -159 -238 -249 -85 -90 -167 -175 -182 -191 -16 -15
-28 -29 -28 -32 0 -2 79 -4 175 -3 l175 1 0 -462 0 -463 180 0 180 0 2 462 3
461 155 -1 c85 0 164 -1 175 -1 21 -1 21 -5 20 -458 l0 -458 178 -3 c164 -2
177 -1 178 15 0 10 1 407 2 883 l2 865 167 1 c92 0 170 3 173 6 6 6 -2 14
-225 248 -81 85 -181 190 -222 233 l-73 78 -140 -147z"/>
</g>
</svg>
