<?xml version="1.0" encoding="UTF-8"?>
<svg width="12px" height="16px" viewBox="0 0 12 16" version="1.1" xmlns="http://www.w3.org/2000/svg" xmlns:xlink="http://www.w3.org/1999/xlink">
    <!-- Generator: Sketch 55.2 (78181) - https://sketchapp.com -->
    <title>Combined Shape</title>
    <desc>Created with Sketch.</desc>
    <g id="Page-1" stroke="none" stroke-width="1" fill="none" fill-rule="evenodd">
        <g id="billing" transform="translate(-333.000000, -485.000000)" fill="#1B23FC" fill-rule="nonzero">
            <g id="services" transform="translate(280.000000, 343.000000)">
                <g id="1" transform="translate(30.000000, 61.000000)">
                    <g transform="translate(17.000000, 77.000000)" id="avatar">
                        <g>
                            <path d="M8.20080566,8.24328613 C7.94665528,8.28723144 7.70324706,8.11694338 7.65917969,7.861084 C7.31005859,5.83886719 8.87194825,4 10.9078369,4 C12.9460449,4 14.5004883,5.83911131 14.157959,7.85314941 C14.1145019,8.10839844 13.8724365,8.28027344 13.6171875,8.23669434 C13.3619385,8.19323731 13.1903076,7.95117188 13.2336426,7.69592284 C13.4798584,6.24890138 12.3620606,4.9375 10.9078369,4.9375 C9.44921875,4.9375 8.33337403,6.25512694 8.58300781,7.70166016 C8.62695312,7.95678713 8.45593262,8.19921875 8.20080566,8.24328613 Z M15.8957519,11.5201416 C16.828125,11.0588379 17.9234619,11.7427978 17.9234619,12.78125 L17.9234619,17.65625 C17.9234619,18.9486084 16.8720703,20 15.5797119,20 L11.7626953,20 C11.1174316,20 10.4941406,19.7299805 10.0528564,19.2593994 L6.88806153,15.8837891 C6.34448244,15.3127441 6.37390137,14.4041748 6.96423341,13.8706055 C7.52368162,13.3648682 8.40869141,13.4038086 8.93725587,13.9571533 L9.48791503,14.5338135 L9.48791503,7.3125 C9.48791503,6.51867675 10.1442871,5.88427734 10.9364014,5.90673828 C11.6923828,5.92749025 12.307251,6.56677247 12.307251,7.33190919 L12.307251,10.2026367 C12.9710693,9.97216797 13.701416,10.2683106 14.0207519,10.8951416 C14.7076416,10.5552978 15.5444336,10.8305664 15.8957519,11.5201416 Z M16.9859619,17.65625 L16.9859619,12.78125 C16.9859619,12.5228272 16.7756347,12.3125 16.5172119,12.3125 C16.2587891,12.3125 16.0484619,12.5228272 16.0484619,12.78125 L16.0484619,12.9375 C16.0484619,13.1964111 15.8386231,13.40625 15.5797119,13.40625 C15.3208008,13.40625 15.1109619,13.1964111 15.1109619,12.9375 L15.1109619,12.15625 C15.1109619,11.8978272 14.9006347,11.6875 14.6422119,11.6875 C14.3837891,11.6875 14.1734619,11.8978272 14.1734619,12.15625 L14.1734619,12.9375 C14.1734619,13.1964111 13.9636231,13.40625 13.7047119,13.40625 C13.4458008,13.40625 13.2359619,13.1964111 13.2359619,12.9375 L13.2359619,11.53125 C13.2359619,11.2728272 13.0256347,11.0625 12.7672119,11.0625 C12.5391846,11.0625 12.348999,11.2260742 12.307251,11.4421387 L12.307251,12.9375 C12.307251,13.1972656 12.095459,13.4086914 11.8341064,13.4060059 C11.5723877,13.4086914 11.3609619,13.1971436 11.3609619,12.9375 C11.3609619,10.1518555 11.369751,12.4898682 11.369751,7.33190919 C11.369751,7.06970216 11.1639404,6.85083006 10.9108887,6.84387206 C10.6437988,6.83642578 10.425293,7.04907225 10.425293,7.3125 L10.425293,15.7034912 C10.425293,16.1252441 9.90881347,16.3322754 9.61755372,16.0270996 L8.25915528,14.6046143 C8.078125,14.4150391 7.77917481,14.3977051 7.59277344,14.56604 C7.39501953,14.7449951 7.38635253,15.0480957 7.56762694,15.2380371 C7.5789795,15.25 10.7254639,18.6060791 10.7368164,18.618042 C11.0015869,18.9005127 11.3754883,19.0625 11.7626953,19.0625 L15.5797119,19.0625 C16.3551025,19.0625 16.9859619,18.4316406 16.9859619,17.65625 Z" id="Combined-Shape"></path>
                        </g>
                    </g>
                </g>
            </g>
        </g>
    </g>
</svg>