<?xml version="1.0" encoding="UTF-8"?>
<svg width="16px" height="16px" viewBox="0 0 16 16" version="1.1" xmlns="http://www.w3.org/2000/svg" xmlns:xlink="http://www.w3.org/1999/xlink">
    <!-- Generator: Sketch 55.2 (78181) - https://sketchapp.com -->
    <title>Fill 1</title>
    <desc>Created with Sketch.</desc>
    <g id="Page-1" stroke="none" stroke-width="1" fill="none" fill-rule="evenodd">
        <g id="service-checkout" transform="translate(-477.000000, -512.000000)" fill="#FFFFFF">
            <g id="modal" transform="translate(440.000000, 224.000000)">
                <g id="2" transform="translate(30.000000, 280.000000)">
                    <g id="icon" transform="translate(0.000000, 1.000000)">
                        <path d="M22.0003251,7.00111748 C21.4498434,7.00111748 21.0004502,7.4514622 21.0004502,8.0014317 L21.0004502,9.7204676 C19.309971,7.80116554 16.7297133,6.70122654 13.9002375,7.07126147 C10.4662328,7.53685487 7.5867132,10.2938184 7.07926919,13.8721782 C6.99419475,14.4689104 7.47561599,15.0005814 8.0781432,15.0005814 C8.57257583,15.0005814 8.98994102,14.6376626 9.06000233,14.1486878 C9.47436489,11.2412705 11.9795569,9.00072933 15.0002,9.00072933 C16.7697484,9.00072933 18.3701487,9.77129658 19.4601024,11.0003412 L17.9998247,11.0003412 C17.4503439,11.0003412 16.9999498,11.4506859 16.9999498,12.0006554 C16.9999498,12.5506249 17.4503439,13.0009696 17.9998247,13.0009696 L22.0003251,13.0009696 C22.2605528,13.0009696 22.4907542,12.9003282 22.669911,12.7407252 C22.8700862,12.5607907 23.0002,12.2903805 23.0002,12.0006554 L23.0002,8.0014317 C23.0002,7.4514622 22.5498059,7.00111748 22.0003251,7.00111748 M21.920255,15.0005814 C21.4198172,15.0005814 21.010459,15.3706164 20.9403977,15.8606077 C20.4599773,19.1705905 17.280195,21.6093647 13.7100711,20.8601456 C12.4609782,20.6019344 11.3550105,19.9279422 10.5272862,18.9998051 L11.9995745,18.9998051 C12.5530588,18.9998051 13.0004502,18.5525102 13.0004502,18.0005075 C13.0004502,17.4485048 12.5530588,17.0001933 11.9995745,17.0001933 L8.00007489,17.0001933 C7.44759147,17.0001933 7.0002,17.4485048 7.0002,18.0005075 L7.0002,21.9997312 C7.0002,22.5517338 7.44759147,23.0000454 8.00007489,23.0000454 C8.55255831,23.0000454 8.99994978,22.5517338 8.99994978,21.9997312 L8.99994978,20.276629 C10.4682345,21.9417862 12.6121104,23.0000454 15.0002,23.0000454 C19.020718,23.0000454 22.3706491,20.0102851 22.9201299,16.140167 C23.0102088,15.5403851 22.5307893,15.0005814 21.920255,15.0005814" id="Fill-1"></path>
                    </g>
                </g>
            </g>
        </g>
    </g>
</svg>