<?xml version="1.0" encoding="UTF-8"?>
<svg width="32px" height="32px" viewBox="0 0 32 32" version="1.1" xmlns="http://www.w3.org/2000/svg" xmlns:xlink="http://www.w3.org/1999/xlink">
    <!-- Generator: Sketch 55.1 (78136) - https://sketchapp.com -->
    <title>icon</title>
    <desc>Created with Sketch.</desc>
    <g id="Page-1" stroke="none" stroke-width="1" fill="none" fill-rule="evenodd">
        <g id="services" transform="translate(-1195.000000, -563.000000)" fill="#FFFFFF">
            <g id="6" transform="translate(1040.000000, 539.000000)">
                <g id="ad" transform="translate(131.000000, 0.000000)">
                    <g id="icon" transform="translate(24.000000, 24.000000)">
                        <path d="M24,25 L24,29 C24,30.6568542 22.6568542,32 21,32 L9,32 C7.34314575,32 6,30.6568542 6,29 L6,20 L8,20 L8,4 L6,4 L6,3 C6,1.34314575 7.34314575,0 9,0 L21,0 C22.6568542,0 24,1.34314575 24,3 L24,10 L22,10 L22,25 L24,25 Z M22,25 L22,10 L22,3 C22,2.44771525 21.5522847,2 21,2 L9,2 C8.44771525,2 8,2.44771525 8,3 L8,4 L8,20 L8,29 C8,29.5522847 8.44771525,30 9,30 L21,30 C21.5522847,30 22,29.5522847 22,29 L22,25 Z" id="Combined-Shape" fill-rule="nonzero"></path>
                        <circle id="Oval" cx="7" cy="4" r="1"></circle>
                        <circle id="Oval-Copy-4" cx="7" cy="20" r="1"></circle>
                        <circle id="Oval-Copy-2" cx="23" cy="10" r="1"></circle>
                        <circle id="Oval-Copy-3" cx="23" cy="25" r="1"></circle>
                        <path d="M0.551923234,17 C0.247015137,17 0,16.7528316 0,16.4480422 L0,7.55191895 C0,7.24705202 0.247053939,7 0.551923234,7 L9.44811557,7 C9.75290726,7 10,7.24705202 10,7.55191895 L10,16.4480422 C10,16.7528704 9.75286846,17 9.44811557,17 L6.89985527,17 L6.89985527,13.1274489 L8.19969191,13.1274489 L8.39432401,11.618247 L6.89985527,11.618247 L6.89985527,10.654717 C6.89985527,10.2177682 7.02118991,9.92000202 7.64776868,9.92000202 L8.44693986,9.9196528 L8.44693986,8.56981053 C8.30872624,8.55141841 7.8343299,8.51032714 7.28240667,8.51032714 C6.1301738,8.51032714 5.34132401,9.2136513 5.34132401,10.5052518 L5.34132401,11.618247 L4.03815037,11.618247 L4.03815037,13.1274489 L5.34132401,13.1274489 L5.34132401,17 L0.551923234,17 Z" id="Facebook"></path>
                        <path d="M32,13.1838209 C31.5590773,13.3846154 31.0843458,13.5204045 30.5863708,13.5810762 C31.0949111,13.2690502 31.4851206,12.7742867 31.6689558,12.1849043 C31.1928156,12.4738173 30.6666667,12.6840014 30.1045959,12.7966775 C29.6566297,12.3062477 29.0163761,12 28.3078007,12 C26.9491108,12 25.846804,13.130372 25.846804,14.524377 C25.846804,14.7222824 25.8679345,14.9144095 25.9101955,15.0993138 C23.8640606,14.9938606 22.050361,13.989888 20.8353583,12.4608162 C20.6233492,12.8349585 20.5022011,13.2690502 20.5022011,13.7313109 C20.5022011,14.6067172 20.9367846,15.3795594 21.5974643,15.8324305 C21.1945765,15.8201517 20.8142279,15.7053088 20.481775,15.5175153 L20.481775,15.5485735 C20.481775,16.7721199 21.3305159,17.7927049 22.4574749,18.0238353 C22.2511005,18.0830625 22.0334566,18.1126761 21.8087691,18.1126761 C21.6502905,18.1126761 21.4953337,18.0975081 21.3453073,18.0678945 C21.6587427,19.0704225 22.5673534,19.8006501 23.6450079,19.8201517 C22.8026061,20.4976526 21.7404473,20.9014085 20.5874274,20.9014085 C20.3888008,20.9014085 20.1922874,20.8898519 20,20.8667389 C21.0896285,21.5817985 22.3842226,22 23.7739039,22 C28.3028702,22 30.7786582,18.1538462 30.7786582,14.8176237 C30.7786582,14.7078368 30.7765452,14.5980498 30.7723191,14.4904298 C31.2533897,14.1343445 31.6710689,13.6901408 32,13.1838209" id="Twitter"></path>
                        <circle id="Oval" cx="15" cy="26" r="2"></circle>
                    </g>
                </g>
            </g>
        </g>
    </g>
</svg>