<?xml version="1.0" encoding="UTF-8"?>
<svg width="32px" height="28px" viewBox="0 0 32 28" version="1.1" xmlns="http://www.w3.org/2000/svg" xmlns:xlink="http://www.w3.org/1999/xlink">
    <!-- Generator: Sketch 55.1 (78136) - https://sketchapp.com -->
    <title>Combined Shape</title>
    <desc>Created with Sketch.</desc>
    <g id="Page-1" stroke="none" stroke-width="1" fill="none" fill-rule="evenodd">
        <g id="services" transform="translate(-1195.000000, -192.000000)" fill="#FFFFFF">
            <g id="3" transform="translate(1040.000000, 166.000000)">
                <g id="ad" transform="translate(131.000000, 0.000000)">
                    <path d="M54,32 L26,32 L26,46 L54,46 L54,32 Z M54,30 L54,28 L26,28 L26,30 L54,30 Z M39,52 L41,52 L41,48 L39,48 L39,52 Z M26,26 L54,26 C55.105,26 56,26.895 56,28 L56,46 C56,47.104 55.105,48 54,48 L43,48 L43,52 L46,52 C46.552,52 47,52.448 47,53 C47,53.552 46.552,54 46,54 L34,54 C33.448,54 33,53.552 33,53 C33,52.448 33.448,52 34,52 L37,52 L37,48 L26,48 C24.895,48 24,47.104 24,46 L24,28 C24,26.895 24.895,26 26,26 Z M41,34 L51,34 C51.5522847,34 52,34.4477153 52,35 C52,35.5522847 51.5522847,36 51,36 L41,36 C40.4477153,36 40,35.5522847 40,35 C40,34.4477153 40.4477153,34 41,34 Z M41,38 L47,38 C47.5522847,38 48,38.4477153 48,39 C48,39.5522847 47.5522847,40 47,40 L41,40 C40.4477153,40 40,39.5522847 40,39 C40,38.4477153 40.4477153,38 41,38 Z M41,42 L47,42 C47.5522847,42 48,42.4477153 48,43 C48,43.5522847 47.5522847,44 47,44 L41,44 C40.4477153,44 40,43.5522847 40,43 C40,42.4477153 40.4477153,42 41,42 Z M29,34 L37,34 C37.5522847,34 38,34.4477153 38,35 L38,39 C38,39.5522847 37.5522847,40 37,40 L29,40 C28.4477153,40 28,39.5522847 28,39 L28,35 C28,34.4477153 28.4477153,34 29,34 Z M30,36 L30,38 L36,38 L36,36 L30,36 Z" id="Combined-Shape"></path>
                </g>
            </g>
        </g>
    </g>
</svg>