<?xml version="1.0" encoding="UTF-8"?>
<svg width="32px" height="32px" viewBox="0 0 32 32" version="1.1" xmlns="http://www.w3.org/2000/svg" xmlns:xlink="http://www.w3.org/1999/xlink">
    <!-- Generator: Sketch 55.1 (78136) - https://sketchapp.com -->
    <title>Combined Shape</title>
    <desc>Created with Sketch.</desc>
    <g id="Page-1" stroke="none" stroke-width="1" fill="none" fill-rule="evenodd">
        <g id="services" transform="translate(-814.000000, -564.000000)" fill="#AC42FF" stroke="#FFFFFF" stroke-width="2">
            <g id="5" transform="translate(660.000000, 539.000000)">
                <g id="clicking" transform="translate(131.000000, 0.000000)">
                    <path d="M50,50.0034073 L34,46.1449882 L34,31.9632443 L50,28.1048253 L50,50.0034073 Z M34.2108817,46.1951911 L49.9159451,49.9824859 L50.0750422,50.5455384 C50.3161635,51.3988789 51.0991661,52 52,52 C53.1045695,52 54,51.1045695 54,50 L54,28 C54,26.8954305 53.1045695,26 52,26 C51.070152,26 50.2686025,26.6402439 50.0550173,27.5311765 L49.912267,28.1266336 L34.2065637,31.9140827 C34.2068675,31.9140081 34.2068675,31.9140081 34.2071699,31.9139284 C34.2077264,31.9137793 34.2086366,31.9134561 34.2097302,31.9129673 L34.0149958,32 L27,32 C25.3431458,32 24,33.3431458 24,35 L24,43 C24,44.6568542 25.3431458,46 27,46 L28,46 L28,54 C28,55.1045695 28.8954305,56 30,56 C31.1045695,56 32,55.1045695 32,54 L32,46 L33.9495231,46 L34.2108817,46.1951911 Z M28,46 L32,46 L32,54 C32,55.1045695 31.1045695,56 30,56 C28.8954305,56 28,55.1045695 28,54 L28,46 Z M34,46 L27,46 C25.3431458,46 24,44.6568542 24,43 L24,35 C24,33.3431458 25.3431458,32 27,32 L34,32 L34,46 Z" id="Combined-Shape"></path>
                </g>
            </g>
        </g>
    </g>
</svg>