<?xml version="1.0" encoding="UTF-8"?>
<svg width="32px" height="32px" viewBox="0 0 32 32" version="1.1" xmlns="http://www.w3.org/2000/svg" xmlns:xlink="http://www.w3.org/1999/xlink">
    <!-- Generator: Sketch 55.1 (78136) - https://sketchapp.com -->
    <title>target</title>
    <desc>Created with Sketch.</desc>
    <g id="Page-1" stroke="none" stroke-width="1" fill="none" fill-rule="evenodd">
        <g id="services" transform="translate(-815.000000, -190.000000)" fill="#FFFFFF">
            <g id="2" transform="translate(660.000000, 166.000000)">
                <g id="ad" transform="translate(131.000000, 0.000000)">
                    <path d="M45.7784366,32.8620803 C43.6837113,31.0772658 40.9676601,30 38,30 C31.372583,30 26,35.372583 26,42 C26,48.627417 31.372583,54 38,54 C44.627417,54 50,48.627417 50,42 C50,39.0323399 48.9227342,36.3162887 47.1379197,34.2215634 L44.2952786,37.0628989 C45.3631536,38.422644 46,40.1369503 46,42 C46,46.418278 42.418278,50 38,50 C33.581722,50 30,46.418278 30,42 C30,37.581722 33.581722,34 38,34 C39.8630497,34 41.577356,34.6368464 42.9371011,35.7047214 L45.7784366,32.8620803 Z M41.5095482,37.1329303 C40.5226963,36.4200842 39.3104061,36 38,36 C34.6862915,36 32,38.6862915 32,42 C32,45.3137085 34.6862915,48 38,48 C41.3137085,48 44,45.3137085 44,42 C44,40.6895939 43.5799158,39.4773037 42.8670697,38.4904518 L38.637122,42.7184567 C38.261731,43.0938478 37.6569343,43.0938478 37.2815433,42.7184567 C36.9061522,42.3430657 36.9061522,41.738269 37.2815433,41.362878 L41.5095482,37.1329303 Z M46.0208209,30.5239297 L46.0208209,29.0516047 C46.0208209,29.0432646 46.0208209,29.0349244 46.0208209,29.0057339 C46.0208209,28.697148 46.1748959,28.4469432 46.3914337,28.2634597 L50.2629387,24.3836473 C50.446163,24.158463 50.6960143,24 51.0041642,24 C51.0124926,24 51.0166568,24.0083402 51.0249851,24.0083402 C51.2790006,24 51.5288519,24.0875717 51.7245687,24.2793953 C51.9161214,24.4753891 51.9994051,24.7297639 51.9994051,25.0008191 L51.9994051,27.9882344 L55.0005949,27.9882344 C55.0505651,27.9882344 55.0838786,28.0341053 55.1338489,28.0424455 C55.3462225,28.0632959 55.5585961,28.121677 55.7209994,28.2843101 C55.9125521,28.4761337 56,28.7305086 55.9916716,28.9807134 C55.9916716,28.9890535 56,28.9932236 56,29.0015638 C56,29.3226599 55.8334325,29.5728647 55.6044021,29.7605183 L51.7412255,33.6319905 C51.5580012,33.8446645 51.3081499,33.9989575 50.9875074,33.9989575 C50.9750149,33.9989575 50.9666865,33.9989575 50.9583581,33.9989575 L49.4898942,33.9989575 C51.072086,36.2668217 52,39.0250479 52,42 C52,49.7319865 45.7319865,56 38,56 C30.2680135,56 24,49.7319865 24,42 C24,34.2680135 30.2680135,28 38,28 C40.9836059,28 43.7492232,28.9333202 46.0208209,30.5239297 Z M50.6627008,31.9931492 L52.6353361,30.0148931 L50.9958358,30.0148931 C50.4419988,30.0148931 49.9964307,29.5603545 50.0089233,28.9640331 L50.0089233,27.3569141 L48.0029744,29.3685308 L48.0029744,31.9931492 L50.6627008,31.9931492 Z" id="target"></path>
                </g>
            </g>
        </g>
    </g>
</svg>