<?xml version="1.0" encoding="UTF-8"?>
<svg width="16px" height="16px" viewBox="0 0 16 16" version="1.1" xmlns="http://www.w3.org/2000/svg" xmlns:xlink="http://www.w3.org/1999/xlink">
    <!-- Generator: Sketch 55.2 (78181) - https://sketchapp.com -->
    <title>target</title>
    <desc>Created with Sketch.</desc>
    <g id="Page-1" stroke="none" stroke-width="1" fill="none" fill-rule="evenodd">
        <g id="billing" transform="translate(-332.000000, -532.000000)" fill="#FF1342">
            <g id="services" transform="translate(280.000000, 343.000000)">
                <g id="1" transform="translate(30.000000, 61.000000)">
                    <g id="2" transform="translate(17.000000, 123.000000)">
                        <g id="avatar">
                            <path d="M15.8892183,9.43104014 C14.8418557,8.53863289 13.4838301,8 12,8 C8.6862915,8 6,10.6862915 6,14 C6,17.3137085 8.6862915,20 12,20 C15.3137085,20 18,17.3137085 18,14 C18,12.5161699 17.4613671,11.1581443 16.5689599,10.1107817 L15.1476393,11.5314495 C15.6815768,12.211322 16,13.0684751 16,14 C16,16.209139 14.209139,18 12,18 C9.790861,18 8,16.209139 8,14 C8,11.790861 9.790861,10 12,10 C12.9315249,10 13.788678,10.3184232 14.4685505,10.8523607 L15.8892216,9.43103683 Z M13.7547741,11.5664651 C13.2613482,11.2100421 12.6552031,11 12,11 C10.3431458,11 9,12.3431458 9,14 C9,15.6568542 10.3431458,17 12,17 C13.6568542,17 15,15.6568542 15,14 C15,13.3447969 14.7899579,12.7386518 14.4335349,12.2452259 L12.318561,14.3592284 C12.1308655,14.5469239 11.8284672,14.5469239 11.6407716,14.3592284 C11.4530761,14.1715328 11.4530761,13.8691345 11.6407716,13.681439 L13.7547741,11.5664651 Z M16.0104105,8.26196483 L16.0104105,7.52580237 C16.0104105,7.52163229 16.0104105,7.51746221 16.0104105,7.50286693 C16.0104105,7.34857398 16.0874479,7.22347159 16.1957168,7.13172984 L18.1314694,5.19182367 C18.2230815,5.07923151 18.3480071,5 18.5020821,5 C18.5062463,5 18.5083284,5.00417008 18.5124926,5.00417008 C18.6395003,5 18.7644259,5.04378584 18.8622844,5.13969767 C18.9580607,5.23769454 18.9997026,5.36488197 18.9997026,5.50040956 L18.9997026,6.99411721 L20.5002974,6.99411721 C20.5252826,6.99411721 20.5419393,7.01705265 20.5669244,7.02122273 C20.6731112,7.03164793 20.779298,7.06083848 20.8604997,7.14215504 C20.956276,7.23806687 21,7.3652543 20.9958358,7.49035669 C20.9958358,7.49452677 21,7.49661181 21,7.50078189 C21,7.66132996 20.9167162,7.78643235 20.8022011,7.88025914 L18.8706127,9.81599523 C18.7790006,9.92233227 18.654075,9.99947874 18.4937537,9.99947874 C18.4875074,9.99947874 18.4833432,9.99947874 18.4791791,9.99947874 L17.7449471,9.99947874 C18.536043,11.1334108 19,12.5125239 19,14 C19,17.8659932 15.8659932,21 12,21 C8.13400675,21 5,17.8659932 5,14 C5,10.1340068 8.13400675,7 12,7 C13.491803,7 14.8746116,7.4666601 16.0104105,8.26196483 Z M18.3313504,8.99657458 L19.3176681,8.00744657 L18.4979179,8.00744657 C18.2209994,8.00744657 17.9982153,7.78017723 18.0044616,7.48201653 L18.0044616,6.67845707 L17.0014872,7.6842654 L17.0014872,8.99657458 L18.3313504,8.99657458 Z" id="target"></path>
                        </g>
                    </g>
                </g>
            </g>
        </g>
    </g>
</svg>