<?xml version="1.0" encoding="UTF-8"?>
<svg width="32px" height="28px" viewBox="0 0 32 28" version="1.1" xmlns="http://www.w3.org/2000/svg" xmlns:xlink="http://www.w3.org/1999/xlink">
    <!-- Generator: Sketch 55.1 (78136) - https://sketchapp.com -->
    <title>Group 2</title>
    <desc>Created with Sketch.</desc>
    <g id="Page-1" stroke="none" stroke-width="1" fill="none" fill-rule="evenodd">
        <g id="services" transform="translate(-435.000000, -565.000000)" fill="#FFFFFF">
            <g id="4" transform="translate(280.000000, 539.000000)">
                <g id="ad" transform="translate(131.000000, 0.000000)">
                    <g id="Group-2" transform="translate(24.000000, 26.000000)">
                        <path d="M27,22 C27.5522847,22 28,22.4477153 28,23 L28,24 C28,24.5522847 27.5522847,25 27,25 C26.4477153,25 26,24.5522847 26,24 L26,23 C26,22.4477153 26.4477153,22 27,22 Z M27,10 C26.4477153,10 26,9.55228475 26,9 C26,8.44771525 26.4477153,8 27,8 C27.5522847,8 28,8.44771525 28,9 C28,9.55228475 27.5522847,10 27,10 Z M2,6 L27,6 C27.5522847,6 28,6.44771525 28,7 C28,7.55228475 27.5522847,8 27,8 L2,8 C1.44771525,8 1,7.55228475 1,7 C1,6.44771525 1.44771525,6 2,6 Z M7,12 L21,12 C21.5522847,12 22,12.4477153 22,13 C22,13.5522847 21.5522847,14 21,14 L7,14 C6.44771525,14 6,13.5522847 6,13 C6,12.4477153 6.44771525,12 7,12 Z M7,16 L17,16 C17.5522847,16 18,16.4477153 18,17 C18,17.5522847 17.5522847,18 17,18 L7,18 C6.44771525,18 6,17.5522847 6,17 C6,16.4477153 6.44771525,16 7,16 Z M7,20 L17,20 C17.5522847,20 18,20.4477153 18,21 C18,21.5522847 17.5522847,22 17,22 L7,22 C6.44771525,22 6,21.5522847 6,21 C6,20.4477153 6.44771525,20 7,20 Z" id="Combined-Shape" fill-rule="nonzero"></path>
                        <path d="M28,9 L26,9 L26,24 L28,24 C28,26.209139 26.209139,28 24,28 L4,28 C1.790861,28 0,26.209139 0,24 L0,4 C0,1.790861 1.790861,0 4,0 L24,0 C26.209139,0 28,1.790861 28,4 L28,9 Z M26,9 L26,4 C26,2.8954305 25.1045695,2 24,2 L4,2 C2.8954305,2 2,2.8954305 2,4 L2,24 C2,25.1045695 2.8954305,26 4,26 L24,26 C25.1045695,26 26,25.1045695 26,24 L26,9 Z" id="Combined-Shape" fill-rule="nonzero"></path>
                        <path d="M26.01205,14.97575 L25.42705,14.97575 L26.71805,13.69275 C27.10705,13.30575 27.10705,12.67775 26.71805,12.29075 C26.32805,11.90275 25.69605,11.90275 25.30605,12.29075 L22.31305,15.26575 C22.22105,15.35775 22.14805,15.46675 22.09705,15.58875 C21.99605,15.83075 21.99605,16.10375 22.09705,16.34675 C22.14805,16.46775 22.22105,16.57775 22.31305,16.66975 L25.30605,19.64475 C25.50105,19.83875 25.75705,19.93575 26.01205,19.93575 C26.26705,19.93575 26.52305,19.83875 26.71805,19.64475 C27.10705,19.25775 27.10705,18.62975 26.71805,18.24175 L25.42705,16.95975 L26.01205,16.95975 C28.21405,16.95975 30.00405,18.73875 30.00405,20.92775 C30.00405,21.47575 30.45005,21.91875 31.00205,21.91875 C31.55405,21.91875 32.00005,21.47575 32.00005,20.92775 C32.00005,17.64575 29.31405,14.97575 26.01205,14.97575" id="Fill-1" transform="translate(27.010675, 16.959250) scale(-1, 1) translate(-27.010675, -16.959250) "></path>
                    </g>
                </g>
            </g>
        </g>
    </g>
</svg>