<?xml version="1.0" encoding="UTF-8"?>
<svg width="23px" height="32px" viewBox="0 0 23 32" version="1.1" xmlns="http://www.w3.org/2000/svg" xmlns:xlink="http://www.w3.org/1999/xlink">
    <!-- Generator: Sketch 55.1 (78136) - https://sketchapp.com -->
    <title>Group</title>
    <desc>Created with Sketch.</desc>
    <g id="Page-1" stroke="none" stroke-width="1" fill="none" fill-rule="evenodd">
        <g id="services" transform="translate(-440.000000, -190.000000)" fill="#FFFFFF" fill-rule="nonzero">
            <g id="1" transform="translate(280.000000, 166.000000)">
                <g id="clicking" transform="translate(131.000000, 0.000000)">
                    <g id="Group" transform="translate(29.000018, 24.000000)">
                        <path d="M3.40159305,8.48657225 C3.91184698,8.3984375 4.25388798,7.91357425 4.16599736,7.40332031 C3.6667298,4.51025388 5.89841923,1.875 8.81565555,1.875 C11.7241029,1.875 13.9596985,4.49780275 13.4672669,7.39184569 C13.380597,7.90234375 13.7238587,8.38647462 14.2343567,8.47338869 C14.7448548,8.56054688 15.2289856,8.21679688 15.3158997,7.70629881 C16.0009583,3.67822263 12.8920716,8.8817842e-16 8.81565555,8.8817842e-16 C4.74387823,8.8817842e-16 1.62009892,3.67773438 2.31834111,7.722168 C2.40647586,8.23388675 2.8932923,8.57446287 3.40159305,8.48657225 Z" id="Path"></path>
                        <path d="M18.7914856,15.0402832 C18.0888489,13.6611328 16.4152649,13.1105957 15.0414856,13.7902832 C14.4028137,12.5366211 12.9421204,11.9443359 11.6144837,12.4052734 L11.6144837,6.66381837 C11.6144837,5.13354494 10.3847474,3.8549805 8.87278448,3.81347656 C7.28855598,3.76855469 5.9758118,5.0373535 5.9758118,6.625 L5.9758118,21.0676269 L4.87449348,19.9143066 C3.81736455,18.8076172 2.04734498,18.7297363 0.928448547,19.7412109 C-0.252215515,20.8083496 -0.31105339,22.6254883 0.776104797,23.7675781 L7.10569461,30.5187988 C7.98826298,31.4599609 9.23484498,32 10.5253724,32 L18.1594055,32 C20.7441224,32 22.8469055,29.8972168 22.8469055,27.3125 L22.8469055,17.5625 C22.8469055,15.4855957 20.6562317,14.1176757 18.7914856,15.0402832 Z M20.9719055,27.3125 C20.9719055,28.8632813 19.7101868,30.125 18.1594055,30.125 L10.5253724,30.125 C9.7509583,30.125 9.00315555,29.8010254 8.47361455,29.236084 C8.45090948,29.2121582 2.15794073,22.5 2.13523561,22.4760742 C1.7726868,22.0961914 1.7900208,21.4899903 2.18552861,21.1320801 C2.55833136,20.7954101 3.15623173,20.8300781 3.5182923,21.2092285 L6.23508917,24.0541992 C6.81760867,24.6645508 7.85056767,24.2504883 7.85056767,23.4069824 L7.85056767,6.625 C7.85056767,6.0981445 8.28757936,5.67285156 8.82175911,5.68774412 C9.32786261,5.70166012 9.73948367,6.13940431 9.73948367,6.66381837 C9.73948367,16.9797363 9.72190555,12.3037109 9.72190555,17.875 C9.72190555,18.3942871 10.1447571,18.8173828 10.6681946,18.8120117 C11.1908997,18.8173828 11.6144837,18.3945312 11.6144837,17.875 L11.6144837,14.8842774 C11.6979798,14.4521484 12.0783509,14.125 12.5344055,14.125 C13.0512512,14.125 13.4719055,14.5456543 13.4719055,15.0625 L13.4719055,17.875 C13.4719055,18.3928222 13.8915833,18.8125 14.4094055,18.8125 C14.9272279,18.8125 15.3469055,18.3928222 15.3469055,17.875 L15.3469055,16.3125 C15.3469055,15.7956543 15.7675599,15.375 16.2844055,15.375 C16.8012512,15.375 17.2219055,15.7956543 17.2219055,16.3125 L17.2219055,17.875 C17.2219055,18.3928222 17.6415833,18.8125 18.1594055,18.8125 C18.6772279,18.8125 19.0969055,18.3928222 19.0969055,17.875 L19.0969055,17.5625 C19.0969055,17.0456543 19.5175599,16.625 20.0344055,16.625 C20.5512512,16.625 20.9719055,17.0456543 20.9719055,17.5625 L20.9719055,27.3125 Z" id="Shape"></path>
                    </g>
                </g>
            </g>
        </g>
    </g>
</svg>